<svg height="30" preserveAspectRatio="xMidYMid meet" viewBox="0 0 242 205" width="36" xmlns="http://www.w3.org/2000/svg" xmlns:xlink="http://www.w3.org/1999/xlink"><mask id="a" fill="#fff"><path d="m.06.85022565v196.08977435h241.721v-98.0448872-98.04488715z" fill="#fff" fill-rule="evenodd" xmlns:xlink="http://www.w3.org/1999/xlink"/></mask><g fill="none" fill-rule="evenodd"><g fill="#1a1918"><path d="m73.166 59.362 1.405-1.123c-.486-.606-2.182-2.585-3.625-2.585h-1.123v1.797h1.123c.365.016 1.445.946 2.22 1.911"/><path d="m88.704 57.86c1.181-.579 2.628-1.208 3.482-1.315.295-.036.52-.005.629.088.121.103.156.318.158.385l1.799-.015c0-.106-.02-1.059-.764-1.713-.353-.315-.998-.659-2.047-.528-1.914.239-5.338 2.139-5.72 2.356l-2.993 1.683h5.456s0-.471 0-.941"/><path d="m55.733 68.538c.529.067 1.541.192 1.541.192s.191-.153.273-.218c.114-.072 2.801-1.682 20.186-2.519 6.477-.313 13.371-.436 20.039-.558 12.941-.229 25.166-.449 34.898-1.925 12.249-1.855 23.388-9.424 27.29-12.324v1.095h6.293l-5.418-4.062-.544.444c-.135.109-13.479 10.887-27.89 13.07-9.613 1.456-21.781 1.675-34.66 1.905-6.682.122-13.59.244-20.096.557-15.213.735-19.582 2.066-20.81 2.67-.405-.053-2.143-.27-2.143-.27l-1.41 2.817 1.609.805s.522-1.045.842-1.679"/></g><g fill="#3ea447"><path d="m63.655 34.276c4.566-5.347 11.857-3.153 14.707-2.003-2.037 1.88-4.033 3.773-5.655 5.323-4.16 3.988-8.121 9.32-9.847 11.743-1.035-1.107-2.524-3.119-2.815-5.789-.324-2.97.891-6.091 3.61-9.274"/><path d="m63.655 34.276c4.566-5.347 11.857-3.153 14.707-2.003-2.037 1.88-4.033 3.773-5.655 5.323-4.16 3.988-8.121 9.32-9.847 11.743-1.035-1.107-2.524-3.119-2.815-5.789-.324-2.97.891-6.091 3.61-9.274"/><path d="m60.208 55.687 3.89-3.405.098-.143c.051-.076 5.154-7.588 10.379-12.595 2.256-2.16 4.422-4.188 6.377-5.979-.127.327-.235.651-.311.961-2.918 11.442-2.951 25.705-2.951 25.847h1.797c0-.139.037-14.184 2.894-25.403.43-1.685 1.873-3.841 3.057-5.407 2.1-1.814 3.582-2.977 4.103-3.188 1.407-.393 5.487-.393 7.03-.393.963 0 2.416.068 3.521.128-.453.6-.965 1.212-1.373 1.661-.5.553-.461 1.407.092 1.906.553.501 1.404.459 1.906-.09.405-.448 2.463-2.761 2.977-4.302.568-1.703 5.912-16.539 18.596-13.064 5.945 1.631 9.826 4.504 11.523 8.54 3.031 7.197-1.732 15.943-1.783 16.03-.358.651-.125 1.471.527 1.834.651.361 1.471.128 1.832-.524.119-.213 1.635-2.986 2.518-6.798 1.857.773 7.456 3.11 9.639 4.203 1.373.687 3.295 2.099 4.766 3.247-2.705.766-4.443 1.701-4.59 1.781-.648.358-.89 1.175-.531 1.829.355.653 1.176.894 1.826.537.043-.022 2.631-1.405 6.393-2.087.107-.006.215-.023.316-.054 2.197-.368 4.764-.487 7.449.035 1.723.332 3.77 1.429 5.631 2.98-3.947-1.401-9.525-2.97-13.183-2.264-2.766.529-7.186 3.237-12.317 6.373-6.306 3.859-13.456 8.235-19.44 9.823-10.28 2.727-29.893 3.935-44.535 4.467l-7.516.311c-6.66.292-12.41.547-13.23-.104-.522-.435-.346-1.123.15-2.482l.363-1.076c.264-.915.781-2.021 1.133-2.719.27-.115.529-.226.777-.332z"/><path d="m60.208 55.687 3.89-3.405.098-.143c.051-.076 5.154-7.588 10.379-12.595 2.256-2.16 4.422-4.188 6.377-5.979-.127.327-.235.651-.311.961-2.918 11.442-2.951 25.705-2.951 25.847h1.797c0-.139.037-14.184 2.894-25.403.43-1.685 1.873-3.841 3.057-5.407 2.1-1.814 3.582-2.977 4.103-3.188 1.407-.393 5.487-.393 7.03-.393.963 0 2.416.068 3.521.128-.453.6-.965 1.212-1.373 1.661-.5.553-.461 1.407.092 1.906.553.501 1.404.459 1.906-.09.405-.448 2.463-2.761 2.977-4.302.568-1.703 5.912-16.539 18.596-13.064 5.945 1.631 9.826 4.504 11.523 8.54 3.031 7.197-1.732 15.943-1.783 16.03-.358.651-.125 1.471.527 1.834.651.361 1.471.128 1.832-.524.119-.213 1.635-2.986 2.518-6.798 1.857.773 7.456 3.11 9.639 4.203 1.373.687 3.295 2.099 4.766 3.247-2.705.766-4.443 1.701-4.59 1.781-.648.358-.89 1.175-.531 1.829.355.653 1.176.894 1.826.537.043-.022 2.631-1.405 6.393-2.087.107-.006.215-.023.316-.054 2.197-.368 4.764-.487 7.449.035 1.723.332 3.77 1.429 5.631 2.98-3.947-1.401-9.525-2.97-13.183-2.264-2.766.529-7.186 3.237-12.317 6.373-6.306 3.859-13.456 8.235-19.44 9.823-10.28 2.727-29.893 3.935-44.535 4.467l-7.516.311c-6.66.292-12.41.547-13.23-.104-.522-.435-.346-1.123.15-2.482l.363-1.076c.264-.915.781-2.021 1.133-2.719.27-.115.529-.226.777-.332z"/><path d="m51.581 59.836c.554-.463 2.834-1.574 5.181-2.638-.15.379-.287.764-.394 1.131l-.323.952c-.49 1.345-1.164 3.189.389 4.481 1.254 1.045 4.693.948 14.459.518l7.502-.31c14.736-.536 34.492-1.757 44.932-4.524 6.24-1.656 13.509-6.103 19.921-10.029 4.769-2.918 9.271-5.674 11.712-6.142 4.53-.872 12.899 2.361 15.768 3.554 1.549 2.062 2.576 4.427 2.494 6.754-.189 5.493-3.539 7.626-11.137 11.189-6.941 3.255-19.976 5.49-20.111 5.511-.732.125-1.226.821-1.101 1.556.125.733.82 1.229 1.554 1.104.395-.068 7.205-1.234 13.703-3.15-3.332 3.655-8.293 9.136-10.468 11.746l-1.7 2.112c-3.682 4.642-10.538 13.287-16.983 15.218-16.949 5.083-32.586 6.306-53.293-4.1-.221-.381-.619-.646-1.088-.674-.07-.004-.137.002-.205.008-.199-.102-.395-.199-.594-.305-10.367-5.484-13.746-12.982-13.779-13.058l-.275-.631-.676-.147c-.821-.178-3.197-.777-4.336-1.428-.647-.37-1.256-.605-1.746-.795-.658-.257-.977-.395-1.043-.558-.285-.716-.93-4.586-.93-7.198 0-.577.031-1.093.108-1.501 1.359-7.483 2.349-8.55 2.459-8.646"/><path d="m21.592 127.802c-9.355-10.293-11.291-32.062-11.291-38.94 0-1.001.041-1.68.106-1.97.609-1.536 6.203-8.713 12.506-15.241 7.507-7.774 12.101-10.694 13.754-10.832 1.312-.109 6.185 2.444 10.218 5.007-.137.669-.277 1.39-.42 2.174-.097.542-.142 1.216-.142 1.96 0 3.014.693 7.163 1.117 8.223.508 1.269 1.605 1.694 2.574 2.071.447.174.91.354 1.381.623 1.307.745 3.397 1.314 4.463 1.572.996 1.914 4.574 7.827 12.91 12.743-1.017 1.731-2.254 3.323-2.879 3.402-.24.031-.33 0-.353-.008-.022-.042-.035-.122-.035-.219 0-.081.009-.172.025-.244l-1.715-.529c-1.91 5.053-4.439 8.807-5.338 8.689-.082-.13-.125-.338-.125-.636 0-2.04 1.848-7.74 4.424-13.432l.285-.624-.527-.439c-.168-.141-4.168-3.463-6.723-4.622-4.664-2.121-10.689-4.554-12.912-4.11-2.326.466-5.685 3.45-10.35 8.112-1.675 1.677-7.197 7.357-7.879 10.084-.585 2.345 4.872 15.02 9.124 21.184 3.418 4.957 7.658 9.196 9.935 11.472.74.742 1.324 1.324 1.578 1.631.619.742 1.43 1.024 2.209 1.065-.252 1.433-.467 3.414-.543 6.41-3.982-.984-16.392-4.694-25.377-14.576"/><path d="m21.592 127.802c-9.355-10.293-11.291-32.062-11.291-38.94 0-1.001.041-1.68.106-1.97.609-1.536 6.203-8.713 12.506-15.241 7.507-7.774 12.101-10.694 13.754-10.832 1.312-.109 6.185 2.444 10.218 5.007-.137.669-.277 1.39-.42 2.174-.097.542-.142 1.216-.142 1.96 0 3.014.693 7.163 1.117 8.223.508 1.269 1.605 1.694 2.574 2.071.447.174.91.354 1.381.623 1.307.745 3.397 1.314 4.463 1.572.996 1.914 4.574 7.827 12.91 12.743-1.017 1.731-2.254 3.323-2.879 3.402-.24.031-.33 0-.353-.008-.022-.042-.035-.122-.035-.219 0-.081.009-.172.025-.244l-1.715-.529c-1.91 5.053-4.439 8.807-5.338 8.689-.082-.13-.125-.338-.125-.636 0-2.04 1.848-7.74 4.424-13.432l.285-.624-.527-.439c-.168-.141-4.168-3.463-6.723-4.622-4.664-2.121-10.689-4.554-12.912-4.11-2.326.466-5.685 3.45-10.35 8.112-1.675 1.677-7.197 7.357-7.879 10.084-.585 2.345 4.872 15.02 9.124 21.184 3.418 4.957 7.658 9.196 9.935 11.472.74.742 1.324 1.324 1.578 1.631.619.742 1.43 1.024 2.209 1.065-.252 1.433-.467 3.414-.543 6.41-3.982-.984-16.392-4.694-25.377-14.576"/><path d="m57.248 117.496c-.015.093-.017.186-.013.277-.305.388-.596.774-.871 1.154-2.662 3.686-7.467 11.937-8.451 15.235-.424.037-.909-.028-1.225-.409-.311-.367-.889-.948-1.691-1.75-2.237-2.238-6.401-6.402-9.725-11.225-4.338-6.285-8.869-17.539-8.869-19.586 0-.054.004-.102.012-.144.365-1.448 3.408-5.248 7.402-9.243 2.328-2.327 7.17-7.169 9.432-7.622 1.289-.258 5.923 1.306 11.816 3.984 1.824.83 4.633 3.015 5.787 3.939-1.17 2.639-4.252 9.94-4.252 13.561 0 .537.07.992.221 1.338.265.614.705.87 1.027.976.756.252 1.51.018 2.242-.527-.168.301-.33.594-.468.869-1.426 2.858-2.336 8.916-2.374 9.173"/><path d="m65.526 100.391c-.4.007-.793.187-1.053.533-.019.026-.1.133-.222.299.162-.356.312-.707.459-1.041.216.11.488.186.816.209"/><path d="m32.1 170.003c-6.723 3.582-15.977 9.669-16.068 9.727l-.051.033-.045.039c-5.623 4.456-11.654 8.08-13.209 7.964-.033-.076-.07-.143-.07-.252 0-1.71 3.949-7.542 7.793-10.796 1.25-1.057 8.992-5.34 17.742-10.036.336-.044.627-.211.834-.443 5.453-2.922 11.226-5.966 16.018-8.464.462-.238.726-.71.726-1.194 0-.211-.049-.426-.152-.625-.344-.659-1.158-.915-1.819-.572-1.558.814-8.877 4.632-16.453 8.688l-6.746.872-.234.137c-3.731 2.168-7.711 3.932-9.182 4.113.311-.767 1.699-2.412 5.996-5.951 2.629-2.165 16.711-6.135 25.535-8.272.617-.151 1.033-.705 1.033-1.311 0-.105-.013-.213-.038-.319-.176-.724-.905-1.168-1.629-.993-1.762.425-14.043 3.444-21.514 6.292.121-.174.246-.35.389-.522.63-.705 5.388-2.598 11.464-4.283 3.127-.871 11.389-2.179 14.659-2.682.011.323.027.652.041.991.164 3.71.453 7.074.752 9.851-2.321 1.141-10.114 4.987-15.772 8.008"/><path d="m32.1 170.003c-6.723 3.582-15.977 9.669-16.068 9.727l-.051.033-.045.039c-5.623 4.456-11.654 8.08-13.209 7.964-.033-.076-.07-.143-.07-.252 0-1.71 3.949-7.542 7.793-10.796 1.25-1.057 8.992-5.34 17.742-10.036.336-.044.627-.211.834-.443 5.453-2.922 11.226-5.966 16.018-8.464.462-.238.726-.71.726-1.194 0-.211-.049-.426-.152-.625-.344-.659-1.158-.915-1.819-.572-1.558.814-8.877 4.632-16.453 8.688l-6.746.872-.234.137c-3.731 2.168-7.711 3.932-9.182 4.113.311-.767 1.699-2.412 5.996-5.951 2.629-2.165 16.711-6.135 25.535-8.272.617-.151 1.033-.705 1.033-1.311 0-.105-.013-.213-.038-.319-.176-.724-.905-1.168-1.629-.993-1.762.425-14.043 3.444-21.514 6.292.121-.174.246-.35.389-.522.63-.705 5.388-2.598 11.464-4.283 3.127-.871 11.389-2.179 14.659-2.682.011.323.027.652.041.991.164 3.71.453 7.074.752 9.851-2.321 1.141-10.114 4.987-15.772 8.008"/><path d="m168.316 175.337c-4.863 6.611-13.07 15.213-14.977 17.189-1.381-.039-4.58-.056-6.213.555l-1.558.679c-2.61 1.188-4.291 1.764-5.037 1.732.422-.976 2.314-3.109 4.345-4.84.311-.268.473-.645.473-1.028 0-.31-.105-.617-.32-.873-.485-.569-1.334-.633-1.903-.153-.697.594-2.296 2.017-3.573 3.575-.738-.222-1.959-.451-3.554-.293-.872.086-2.311.574-4.588 1.359-1.803.622-5.121 1.768-6.994 2.061.343-.3.783-.645 1.291-1.007.306-.089.564-.278.736-.527 1.877-1.294 4.392-2.817 6.732-4.077.453-.247.707-.711.707-1.188 0-.215-.049-.436-.16-.637-.353-.657-1.17-.904-1.826-.551-2.459 1.326-5.178 2.903-7.291 4.43-1.117.178-3.754.656-6.434 1.548l-3.017 1.147c-1.426.569-4.319 1.719-6.002 2.045 3.041-3.027 13.914-10.107 21.082-12.314 8.519-2.618 15.181-3.311 15.251-3.318l.588-.056.355-.476c.031-.047 3.401-4.515 9.33-10.663 5.981-6.2 11.151-11.152 11.203-11.202l.452-.434-.487-7.811c-.045-.738-.062-1.677-.062-2.71 0-4.174.283-9.885.285-9.957l.023-.422-3.597-5.756c-.395-.631-1.227-.823-1.858-.428-.41.255-.635.696-.635 1.145 0 .244.065.492.206.715 0 0 1.312 2.095 2.253 3.601l-.861-.806c-.545-.51-1.396-.481-1.908.062-.51.544-.481 1.397.062 1.906l3.477 3.26c-.07 1.975-.145 4.486-.145 6.651 0 1.095.02 2.099.067 2.894 0 0 .301 4.838.392 6.32-.027.012-.056.018-.084.032-.156.074-15.88 7.461-47.657 5.49-30.002-1.863-46.384-6.458-48.457-7.068-.183-.396-.359-.779-.527-1.142-2.072-4.519-4.188-13.274-4.725-15.571 1.451-2.106 4.354-6.293 5.278-7.527l5.566-2.784c.668-.332.937-1.141.606-1.809-.335-.665-1.145-.933-1.809-.602l-2.258 1.128c.162-.416.274-.723.309-.816.054-.149.078-.303.078-.456 0-.552-.344-1.072-.895-1.267-.701-.252-1.474.115-1.722.814-.41 1.137-1.258 3.195-1.809 3.885-.918 1.147-5.699 8.098-5.902 8.393l-.334.486.129.573c.103.456 2.531 11.218 5.035 16.679 2.453 5.346 6.939 14.546 6.984 14.639l.266.545.586.162c.062.019 6.533 1.822 14.869 5.55 7.816 3.497 17.314 11.577 17.945 13.942-1.088.141-4.088-2.35-5.43-3.469-1.798-1.496-3.351-2.791-4.667-3.12-2.706-.675-5.364-.334-5.862-.259-4.539-4.099-11.887-8.992-15.767-11.482-.627-.403-1.461-.22-1.864.407-.146.226-.214.477-.214.728 0 .443.22.877.619 1.136 9.158 5.879 17.207 12.172 18.33 14.268-.819.213-2.313-.819-4.145-2.186-1.394-1.036-2.84-2.107-4.262-2.582-3.119-1.041-7.052-1.514-7.963-1.615-2.544-4.193-6.062-8.5-7.619-10.342-.48-.567-1.33-.639-1.9-.156-.314.266-.478.644-.478 1.028 0 .308.105.616.318.87.031.035 3.097 3.673 5.814 7.648 3.647 5.327 4.118 7.491 4.118 8.249 0 .256-.053.35-.059.357 0 0-.018.018-.08.039-.682.243-1.256-.421-2.86-2.823-1.283-1.926-2.882-4.315-5.46-6.585-4.987-4.389-13.104-9.875-15.17-11.252-.309-1.878-1.309-8.428-1.682-16.795-.123-2.809-.178-5.162-.178-7.133 0-5.713.438-8.283.813-9.789.58-2.318 5.047-10.366 8.101-14.596 2.815-3.897 7.879-8.759 7.93-8.806.279-.265.418-.62.418-.975 0-.337-.125-.671-.373-.933-.516-.535-1.369-.555-1.908-.041-.125.121-1.877 1.802-3.907 3.989.37-1.589.827-3.211 1.325-4.21 1.279-2.557 4.56-6.943 4.593-6.987.446-.596.327-1.44-.269-1.889-.195-.145-.416-.225-.643-.254.123 0 .252-.004.395-.022 1.59-.199 3.242-2.593 4.232-4.303.063.037.127.071.196.107.211.112.417.213.629.322.091 2.761.962 9.743 7.224 13.157.336.186.68.358 1.02.534 1.232 2.101 7.154 9.853 27.882 10.868 23.188 1.137 38.503-11.465 39.144-12.002.039-.033.072-.072.107-.106 5.389-1.81 8.725-3.263 8.787-3.288.68-.301.991-1.097.692-1.778s-1.096-.992-1.777-.692c-.448.196-44.308 19.118-73.099 4.856-.102-.068-.209-.124-.324-.164-.383-.194-.764-.389-1.143-.594-4.111-2.247-5.33-6.638-5.684-9.376 22.067 10.572 38.868 8 53.756 3.533 7.053-2.117 13.798-10.43 17.974-15.684-.16.754-.211 1.542-.211 2.177 0 .311.01.574.025.79-1.335 1.073-5.233 4.482-5.233 7.61v.024c.006 1.165.556 2.184 1.585 2.942.906.667 1.965.909 3.147.72 2.185-.35 4.494-2.205 6.298-4.027.014.335.043.67.143.996.238.785.877 1.845 2.562 2.435 3.538 1.239 6.959-4.161 11.291-11 2.29-3.61 4.657-7.346 7.225-10.399 6.934-8.233 16.701-9.89 19.166-8.753 2.123.979 6.426 11.62 9.397 23.233 1.298 5.072 5.468 22.077 4.699 27.983-.844 6.474-4.444 13.076-11.008 20.187-6.113 6.625-12.949 7.225-15.492 7.196l-.033-.586c-.024-.477-.036-1.018-.036-1.603 0-4.652.676-12.028.704-12.34.076-.56 1.076-8.128 1.076-13.752 0-1.28-.053-2.459-.18-3.43-.734-5.639-4.594-8.832-4.758-8.964-.578-.47-1.422-.382-1.892.194-.207.248-.303.552-.303.85 0 .391.168.779.49 1.045.033.027 3.197 2.683 3.787 7.222.115.861.16 1.914.16 3.074 0 5.502-1.043 13.337-1.056 13.431l-.006.055c-.033.352-.719 7.765-.719 12.61 0 .632.014 1.219.037 1.745 0 0 .324 5.794.52 9.283-.084.277-.069.57.043.839.054.936.09 1.588.095 1.717-.617 1.485-4 9.353-8.935 16.065"/><path d="m86.352 113.068c14.109 4.604 30.133 3.134 41.951.779 3.072-.612 5.996-1.31 8.715-2.032-6.551 3.375-16.902 7.177-29.592 6.555-10.882-.533-17.34-2.988-21.074-5.302"/><path d="m200.656 164.788c1.338 1.173 3.177 4.055 3.771 5.064l.043.073.053.065c.867 1.13 2.195 3.056 2.473 3.851.033.154.048.406.048.744 0 2.411-.787 8.914-2.507 11.041-.202.247-.401.401-.52.401-.096 0-.18-.011-.309-.156-1.025-1.175-.968-5.503-.603-8.205l.045-.334-.119-.321c-.028-.077-.723-1.923-1.453-3.142-.346-.597-1.114-3.966-1.627-6.743l-2.659.467c.004.025.43 2.607.43 4.048 0 1.528.561 5.569.666 6.327-.472 5.388-2.037 14.427-4.277 16.212-.266.208-.408.186-.467.18-.334-.05-.562-.197-.762-.512-1.224-1.879-.332-7.361.522-10.376l.07-.259-.031-.267c-.018-.158-.467-3.873-1.285-7.656-1.321-6.105-2.705-8.593-4.774-8.593-1.31 0-3.051.782-7.164 10.134-2.045 4.651-3.754 9.367-3.771 9.415l-.024.067-.019.075c-1.887 7.839-5.522 16.361-7.721 16.06-.1-.014-.176-.035-.287-.213-2.012-3.263 3.756-20.122 5.65-25.66 2.313-6.766 6.26-14.205 7.682-16.799 1.76.458 3.977.897 6.578 1.284 2.127.322 4.668.023 7.447-.755 1.069.999 3.498 3.255 4.901 4.483"/><path d="m200.656 164.788c1.338 1.173 3.177 4.055 3.771 5.064l.043.073.053.065c.867 1.13 2.195 3.056 2.473 3.851.033.154.048.406.048.744 0 2.411-.787 8.914-2.507 11.041-.202.247-.401.401-.52.401-.096 0-.18-.011-.309-.156-1.025-1.175-.968-5.503-.603-8.205l.045-.334-.119-.321c-.028-.077-.723-1.923-1.453-3.142-.346-.597-1.114-3.966-1.627-6.743l-2.659.467c.004.025.43 2.607.43 4.048 0 1.528.561 5.569.666 6.327-.472 5.388-2.037 14.427-4.277 16.212-.266.208-.408.186-.467.18-.334-.05-.562-.197-.762-.512-1.224-1.879-.332-7.361.522-10.376l.07-.259-.031-.267c-.018-.158-.467-3.873-1.285-7.656-1.321-6.105-2.705-8.593-4.774-8.593-1.31 0-3.051.782-7.164 10.134-2.045 4.651-3.754 9.367-3.771 9.415l-.024.067-.019.075c-1.887 7.839-5.522 16.361-7.721 16.06-.1-.014-.176-.035-.287-.213-2.012-3.263 3.756-20.122 5.65-25.66 2.313-6.766 6.26-14.205 7.682-16.799 1.76.458 3.977.897 6.578 1.284 2.127.322 4.668.023 7.447-.755 1.069.999 3.498 3.255 4.901 4.483"/><path d="m224.398 138.563c-9.988 10.414-27.104 21.118-35.69 19.83-3.322-.5-5.501-.986-6.919-1.389-.012-.006-.02-.015-.03-.019-.195-.113-.404-.164-.611-.172-.641-.203-1.074-.373-1.359-.506l-.368-6.615c2.969.036 10.17-.696 16.715-7.787 6.822-7.392 10.576-14.318 11.471-21.172.789-6.054-3.055-22.063-4.744-28.661-1.967-7.7-6.672-22.709-10.383-24.423-3.305-1.524-13.816.35-21.295 9.229-2.648 3.146-5.047 6.933-7.367 10.597-3.438 5.422-6.99 11.03-9.182 10.264-.789-.279-1.26-.69-1.435-1.261-.057-.196-.084-.408-.084-.626 0-1.363 1.023-3.063 1.49-3.689.004-.005.016-.02.018-.024l-1.454-1.06c-.004.003-.011.015-.013.019v-.002c-1.301 1.827-5.342 6.671-8.403 7.16-.697.11-1.283-.017-1.795-.392-.578-.427-.851-.907-.855-1.505-.014-2.264 3.541-5.456 4.912-6.497l.406-.306-.056-.509c0-.017-.2-1.871.195-3.25.324-1.136 1.025-3.03 1.359-3.925 4.077-4.703 12.387-13.741 12.481-13.841.014-.013.019-.03.033-.044.625-.248 1.229-.507 1.795-.772 5.103-2.393 9.978-4.682 11.869-9.436.729.449 1.647 1.019 2.32 1.469.524.35 1.053 1.146 1.414 1.831-2.605 2.021-4.779 3.99-4.943 4.142-.553.501-.592 1.353-.092 1.904.5.552 1.356.592 1.905.091 2.005-1.825 7.859-6.787 10.779-7.819 2.791-.983 11.283-3.981 17.107-3.084 5.047.777 16.707 11.946 21.356 18.549 11.687 16.607 14.14 24.636 14.14 28.445 0 8.282-4.558 24.696-14.687 35.256"/><path d="m224.398 138.563c-9.988 10.414-27.104 21.118-35.69 19.83-3.322-.5-5.501-.986-6.919-1.389-.012-.006-.02-.015-.03-.019-.195-.113-.404-.164-.611-.172-.641-.203-1.074-.373-1.359-.506l-.368-6.615c2.969.036 10.17-.696 16.715-7.787 6.822-7.392 10.576-14.318 11.471-21.172.789-6.054-3.055-22.063-4.744-28.661-1.967-7.7-6.672-22.709-10.383-24.423-3.305-1.524-13.816.35-21.295 9.229-2.648 3.146-5.047 6.933-7.367 10.597-3.438 5.422-6.99 11.03-9.182 10.264-.789-.279-1.26-.69-1.435-1.261-.057-.196-.084-.408-.084-.626 0-1.363 1.023-3.063 1.49-3.689.004-.005.016-.02.018-.024l-1.454-1.06c-.004.003-.011.015-.013.019v-.002c-1.301 1.827-5.342 6.671-8.403 7.16-.697.11-1.283-.017-1.795-.392-.578-.427-.851-.907-.855-1.505-.014-2.264 3.541-5.456 4.912-6.497l.406-.306-.056-.509c0-.017-.2-1.871.195-3.25.324-1.136 1.025-3.03 1.359-3.925 4.077-4.703 12.387-13.741 12.481-13.841.014-.013.019-.03.033-.044.625-.248 1.229-.507 1.795-.772 5.103-2.393 9.978-4.682 11.869-9.436.729.449 1.647 1.019 2.32 1.469.524.35 1.053 1.146 1.414 1.831-2.605 2.021-4.779 3.99-4.943 4.142-.553.501-.592 1.353-.092 1.904.5.552 1.356.592 1.905.091 2.005-1.825 7.859-6.787 10.779-7.819 2.791-.983 11.283-3.981 17.107-3.084 5.047.777 16.707 11.946 21.356 18.549 11.687 16.607 14.14 24.636 14.14 28.445 0 8.282-4.558 24.696-14.687 35.256"/></g><path d="m105.745 30.854.129-.047.509-.399c8.403-6.665 12.844-8.064 15.09-8.064 5.065 0 9.963 4.512 10.49 5.651-.966 1.623-11.543 10.514-16.091 9.947-4.159-.519-7.438-2.603-9.014-3.601l-.805-.488-.756-.305c-1.029-.378-1.392-.601-1.392-1.102 0-.683 1.263-1.379 1.84-1.592zm0 0 .129-.047.509-.399c8.403-6.665 12.844-8.064 15.09-8.064 5.065 0 9.963 4.512 10.49 5.651-.966 1.623-11.543 10.514-16.091 9.947-4.159-.519-7.438-2.603-9.014-3.601l-.805-.488-.756-.305c-1.029-.378-1.392-.601-1.392-1.102 0-.683 1.263-1.379 1.84-1.592zm-1.053 4.342.576.231.65.395c1.551.987 5.184 3.294 9.737 3.862 4.226.529 11.465-4.72 15.072-7.906 3.043-2.686 3.043-3.387 3.043-3.725 0-1.921-6.252-7.466-12.297-7.466-3.674 0-9.119 2.841-16.183 8.444 0 0-.188.149-.29.23-.607.24-2.851 1.264-2.851 3.185 0 1.817 1.592 2.402 2.543 2.75z" fill="#fff"/><g fill="#1a1918"><path d="m31.805 68.265c3.239-2.179 5.555-2.478 5.938-2.23.002.014.005.025.005.04 0 .536-1.185 2.511-4.312 4.615-3.238 2.179-5.557 2.478-5.937 2.23-.004-.014-.008-.025-.008-.041 0-.536 1.187-2.511 4.314-4.614zm-4.515 6.464c1.582.31 4.388-.689 7.148-2.547 2.762-1.859 4.746-4.082 5.057-5.662.138-.718-.061-1.209-.252-1.496-1.252-1.859-5.252-.395-8.442 1.749-2.761 1.857-4.746 4.08-5.054 5.662-.032.169-.047.323-.047.466 0 .471.152.811.301 1.031.191.288.572.656 1.289.797z"/><path d="m23.432 79.493c-.092.552-.684 1.468-1.799 2.27-1.115.803-2.172 1.07-2.722.98-.143-.023-.217-.065-.241-.095-.021-.03-.037-.116-.013-.258.09-.551.679-1.468 1.797-2.27 1.556-1.119 2.81-1.095 2.963-.883.013.02.027.063.027.131 0 .034-.004.077-.012.125zm1.444-1.308c-.934-1.299-3.288-1.094-5.473.475-1.391 1-2.332 2.286-2.522 3.439-.097.608.016 1.161.33 1.599.315.438.801.722 1.409.819 1.154.189 2.673-.295 4.064-1.293 1.391-1.001 2.334-2.286 2.522-3.44.099-.607-.012-1.16-.33-1.599z"/><path d="m163.882 80.469c-1.451 1.854-3.316 3.165-4.756 3.339-.472.058-.845-.017-1.109-.223-.262-.206-.424-.551-.48-1.024-.178-1.437.646-3.565 2.095-5.419 2.143-2.734 4.866-3.901 5.866-3.115.334.26.503.754.503 1.401 0 1.3-.689 3.213-2.119 5.041zm2.725-7.858c-1.986-1.554-5.67-.049-8.391 3.424-1.754 2.244-2.699 4.829-2.466 6.745.115.95.517 1.718 1.16 2.221.644.503 1.484.709 2.435.592 1.914-.232 4.199-1.772 5.953-4.016 2.719-3.475 3.293-7.414 1.309-8.966z"/><path d="m169.273 71.384c-.5.183-1.326-.35-1.713-1.407-.127-.343-.182-.671-.182-.968 0-.618.241-1.088.579-1.213.5-.183 1.324.35 1.714 1.408.387 1.056.098 1.997-.398 2.18zm-1.936-5.276c-1.537.564-2.181 2.534-1.466 4.487.718 1.954 2.482 3.041 4.021 2.478 1.537-.564 2.182-2.535 1.467-4.489-.719-1.954-2.483-3.039-4.022-2.476z"/><path d="m226.244 103.499c-.168.058-.369-.011-.506-.078-.604-.297-1.207-1.111-1.537-2.075-.532-1.557-.178-2.789.3-2.951.166-.059.366.012.504.078.604.297 1.207 1.111 1.536 2.075.185.54.259 1.045.259 1.481 0 .802-.256 1.368-.556 1.47zm-.444-6.637c-.638-.315-1.287-.371-1.883-.169-1.607.55-2.232 2.849-1.419 5.234.492 1.433 1.404 2.595 2.447 3.109.635.311 1.285.369 1.879.165 1.609-.551 2.234-2.848 1.418-5.234-.489-1.434-1.399-2.596-2.442-3.105z"/></g><path d="m231.23 99.101c-.42-.249-1.383-1.388-2.107-3.608-.424-1.311-.561-2.372-.561-3.113 0-.551.078-.883.166-1.05.422.249 1.387 1.39 2.105 3.608.428 1.312.565 2.372.565 3.112 0 .553-.08.885-.168 1.051zm1.314-4.72c-.916-2.819-2.632-5.406-4.406-4.831-1.771.577-1.642 3.68-.724 6.5.589 1.814 1.701 3.997 3.06 4.687.576.295 1.047.24 1.348.143.297-.096.711-.332 1.004-.909.691-1.356.308-3.777-.282-5.59z" fill="#ccd692"/><path d="m222.298 84.558c-.371.202-.843.221-1.412.056-1.642-.485-3.566-2.372-4.892-4.808-2.034-3.723-1.94-7.139-.586-7.876.371-.202.843-.221 1.41-.054 1.644.483 3.568 2.372 4.896 4.808s1.875 5.074 1.391 6.721c-.164.564-.438.952-.807 1.153zm2.534-.646c.621-2.112.033-5.213-1.538-8.09-1.57-2.877-3.857-5.05-5.97-5.672-1.024-.302-1.985-.232-2.776.201-2.49 1.358-2.548 5.889-.136 10.315 1.572 2.878 3.859 5.05 5.97 5.673 1.024.299 1.985.232 2.776-.201.795-.432 1.373-1.202 1.674-2.226z" fill="#1a1918"/><g fill="#d8d959"><path d="m51.528 59.831c.556-.463 2.836-1.573 5.181-2.637-.148.379-.285.765-.39 1.132l-.326.95c-.491 1.346-1.16 3.189.388 4.484 1.254 1.043 4.696.947 14.461.516l7.502-.31c14.735-.536 34.492-1.757 44.93-4.524 6.24-1.658 13.51-6.105 19.923-10.029 4.765-2.918 9.271-5.674 11.711-6.143 4.529-.871 12.898 2.362 15.769 3.557 1.547 2.06 2.574 4.425 2.492 6.753-.189 5.492-3.537 7.627-11.136 11.19-6.942 3.252-19.977 5.488-20.106 5.508-.738.128-1.23.822-1.107 1.556.125.734.822 1.23 1.556 1.106.395-.068 7.204-1.236 13.706-3.153-3.336 3.656-8.297 9.137-10.473 11.749l-1.697 2.109c-3.683 4.645-10.542 13.286-16.986 15.22-16.947 5.084-32.584 6.307-53.295-4.1-.216-.379-.617-.646-1.086-.674-.068-.004-.134.002-.203.008-.199-.102-.394-.199-.591-.303-10.372-5.486-13.75-12.985-13.782-13.058l-.277-.633-.676-.148c-.82-.178-3.197-.776-4.334-1.427-.648-.368-1.256-.604-1.744-.795-.662-.256-.98-.395-1.045-.557-.287-.716-.932-4.587-.932-7.198 0-.578.034-1.094.108-1.502 1.359-7.482 2.351-8.55 2.459-8.647"/><path d="m168.089 175.329c-4.861 6.614-13.068 15.215-14.972 17.19-1.383-.042-4.582-.056-6.217.558l-1.557.674c-2.609 1.19-4.293 1.765-5.038 1.732.423-.98 2.314-3.107 4.345-4.838.314-.27.473-.648.473-1.029 0-.311-.106-.618-.321-.872-.482-.567-1.334-.64-1.902-.153-.695.593-2.295 2.015-3.573 3.572-.737-.219-1.957-.45-3.553-.292-.873.087-2.313.574-4.588 1.359-1.803.622-5.121 1.767-6.992 2.062.342-.301.783-.641 1.289-1.012.307-.085.564-.273.738-.523 1.871-1.294 4.391-2.817 6.731-4.078.451-.241.709-.709.709-1.189 0-.212-.053-.434-.162-.636-.354-.654-1.168-.901-1.827-.55-2.459 1.328-5.175 2.902-7.291 4.432-1.119.176-3.756.653-6.431 1.548l-3.022 1.147c-1.426.569-4.318 1.718-6 2.043 3.039-3.027 13.914-10.104 21.084-12.311 8.518-2.622 15.181-3.315 15.247-3.32l.588-.057.354-.477c.035-.044 3.404-4.511 9.336-10.661 5.978-6.202 11.148-11.153 11.201-11.2l.451-.435-.488-7.813c-.043-.738-.061-1.677-.061-2.711 0-4.172.281-9.884.287-9.955l.02-.423-3.596-5.755c-.394-.631-1.228-.823-1.857-.429-.411.257-.635.696-.635 1.146 0 .244.066.493.207.714 0 0 1.31 2.095 2.25 3.602l-.859-.806c-.545-.51-1.397-.481-1.909.062-.509.542-.48 1.398.061 1.905l3.478 3.261c-.07 1.975-.144 4.486-.144 6.65 0 1.096.019 2.1.066 2.896 0 0 .303 4.837.393 6.32-.027.009-.057.019-.084.029-.154.075-15.881 7.461-47.657 5.488-30.004-1.862-46.385-6.455-48.459-7.066-.184-.394-.36-.777-.526-1.139-2.072-4.52-4.187-13.276-4.722-15.572 1.449-2.106 4.349-6.293 5.277-7.526l5.566-2.783c.666-.334.936-1.144.602-1.81-.332-.666-1.143-.936-1.809-.602l-2.255 1.126c.16-.414.273-.722.306-.817.055-.148.08-.302.08-.453 0-.553-.344-1.073-.894-1.269-.701-.251-1.473.114-1.725.816-.406 1.135-1.254 3.193-1.805 3.882-.92 1.148-5.701 8.1-5.902 8.395l-.334.486.127.574c.102.455 2.533 11.215 5.035 16.676 2.453 5.346 6.94 14.546 6.983 14.641l.265.545.588.162c.067.017 6.533 1.822 14.869 5.552 7.815 3.496 17.315 11.575 17.944 13.94-1.084.141-4.086-2.351-5.428-3.47-1.797-1.496-3.352-2.79-4.67-3.12-2.705-.674-5.361-.334-5.859-.258-4.541-4.1-11.887-8.992-15.766-11.482-.629-.402-1.465-.221-1.867.406-.145.226-.211.479-.211.727 0 .446.219.88.617 1.135 9.158 5.881 17.207 12.173 18.332 14.271-.82.213-2.316-.822-4.148-2.184-1.395-1.039-2.836-2.112-4.262-2.585-3.119-1.043-7.051-1.515-7.961-1.615-2.547-4.194-6.063-8.499-7.617-10.341-.483-.568-1.332-.639-1.903-.158-.314.266-.478.647-.478 1.029 0 .307.105.62.32.872.031.033 3.094 3.671 5.813 7.646 3.648 5.33 4.115 7.49 4.115 8.248 0 .256-.053.352-.055.358-.002 0-.021.017-.082.04-.681.243-1.252-.421-2.861-2.824-1.281-1.924-2.881-4.317-5.459-6.586-4.986-4.388-13.104-9.874-15.17-11.251-.309-1.877-1.311-8.426-1.684-16.792-.123-2.812-.175-5.164-.175-7.136 0-5.713.437-8.283.812-9.787.58-2.319 5.047-10.368 8.104-14.597 2.814-3.898 7.878-8.757 7.931-8.807.276-.265.414-.62.414-.975 0-.336-.125-.67-.373-.932-.515-.537-1.369-.557-1.906-.042-.125.119-1.879 1.803-3.906 3.991.365-1.59.824-3.212 1.322-4.211 1.279-2.556 4.562-6.945 4.594-6.987.447-.595.326-1.442-.27-1.888-.195-.147-.418-.225-.642-.253.125 0 .255-.007.394-.024 1.59-.199 3.244-2.593 4.233-4.302.064.036.128.071.195.108.213.111.418.211.629.32.09 2.759.963 9.741 7.225 13.158.335.183.679.357 1.021.532 1.23 2.102 7.15 9.852 27.881 10.87 23.187 1.136 38.503-11.465 39.145-12.001.037-.035.069-.072.104-.109 5.39-1.808 8.724-3.262 8.787-3.289.682-.299.992-1.094.695-1.776-.302-.681-1.097-.993-1.779-.694-.449.197-44.31 19.118-73.099 4.859-.101-.069-.209-.124-.322-.164-.385-.195-.766-.391-1.142-.597-4.116-2.244-5.331-6.635-5.686-9.376 22.064 10.573 38.865 8.002 53.756 3.535 7.054-2.116 13.8-10.431 17.973-15.684-.16.755-.211 1.54-.211 2.177 0 .311.012.574.024.789-1.334 1.073-5.233 4.482-5.233 7.611v.023c.009 1.167.555 2.182 1.586 2.943.907.668 1.965.909 3.149.72 2.183-.35 4.494-2.204 6.295-4.029.013.336.047.673.144.998.239.785.877 1.845 2.561 2.435 3.539 1.239 6.963-4.163 11.293-10.999 2.287-3.613 4.654-7.348 7.228-10.4 6.93-8.232 16.7-9.892 19.162-8.754 2.124.98 6.426 11.62 9.399 23.234 1.295 5.071 5.467 22.076 4.699 27.985-.846 6.471-4.445 13.074-11.006 20.186-6.119 6.623-12.955 7.224-15.496 7.193l-.033-.582c-.023-.481-.033-1.018-.033-1.606 0-4.653.672-12.027.701-12.338.076-.562 1.076-8.13 1.076-13.752 0-1.281-.053-2.46-.182-3.431-.734-5.639-4.591-8.832-4.755-8.965-.577-.469-1.42-.381-1.891.193-.207.252-.305.552-.305.854 0 .389.166.777.489 1.041.035.029 3.197 2.687 3.789 7.226.113.858.158 1.913.158 3.07 0 5.503-1.043 13.339-1.057 13.434l-.004.054c-.033.353-.717 7.762-.717 12.61 0 .632.012 1.221.038 1.744 0 0 .322 5.795.515 9.282-.08.278-.064.57.047.84.053.936.088 1.587.094 1.718-.617 1.485-4.002 9.352-8.938 16.065"/><path d="m57.292 117.362c-.014.093-.018.185-.012.275-.305.39-.596.776-.871 1.153-2.662 3.689-7.465 11.939-8.452 15.235-.423.037-.91-.028-1.226-.407-.307-.37-.887-.95-1.689-1.752-2.237-2.237-6.403-6.401-9.727-11.222-4.336-6.286-8.867-17.54-8.867-19.587 0-.054.002-.102.009-.143.366-1.45 3.411-5.249 7.405-9.244 2.328-2.327 7.17-7.169 9.432-7.621 1.287-.259 5.923 1.305 11.814 3.982 1.828.832 4.637 3.015 5.787 3.941-1.168 2.639-4.248 9.94-4.248 13.561 0 .536.066.991.219 1.338.267.611.705.868 1.025.976.754.251 1.514.018 2.244-.528-.168.302-.328.595-.467.87-1.427 2.856-2.337 8.915-2.376 9.173"/></g><g fill="#ccd692"><path d="m85.774 113.185c14.107 4.603 30.133 3.133 41.953.779 3.07-.614 5.994-1.31 8.711-2.03-6.549 3.371-16.902 7.175-29.588 6.553-10.887-.533-17.342-2.988-21.076-5.302"/><path d="m31.682 68.245c3.238-2.18 5.557-2.48 5.938-2.231.004.014.005.024.005.041 0 .536-1.185 2.51-4.312 4.613-3.236 2.179-5.555 2.478-5.936 2.231-.005-.015-.007-.026-.007-.042 0-.535 1.183-2.51 4.312-4.612"/><path d="m23.309 79.471c-.09.552-.68 1.468-1.795 2.269-1.119.804-2.174 1.071-2.726.982-.141-.024-.217-.067-.239-.096-.021-.03-.037-.115-.015-.258.092-.55.681-1.468 1.797-2.27 1.558-1.117 2.812-1.095 2.964-.885.014.021.026.066.026.132 0 .035-.004.077-.012.126"/><path d="m163.761 80.447c-1.453 1.854-3.318 3.165-4.756 3.339-.472.059-.847-.017-1.107-.221-.264-.207-.428-.551-.484-1.025-.176-1.438.648-3.564 2.099-5.419 2.139-2.735 4.862-3.901 5.865-3.116.332.26.5.756.5 1.403 0 1.299-.687 3.211-2.117 5.039"/><path d="m169.15 71.363c-.498.182-1.324-.351-1.713-1.409-.125-.34-.182-.671-.182-.967 0-.618.241-1.088.578-1.213.5-.182 1.329.35 1.715 1.406.387 1.059.102 1.999-.398 2.183"/><path d="m226.121 103.478c-.168.058-.366-.012-.506-.079-.604-.297-1.207-1.11-1.535-2.074-.534-1.558-.18-2.789.296-2.952.17-.059.37.011.508.08.604.295 1.207 1.109 1.537 2.073.182.54.258 1.046.258 1.481 0 .803-.256 1.368-.558 1.471"/><path d="m230.714 94.914c.424 1.314.563 2.374.563 3.114"/><path d="m222.175 84.537c-.369.203-.843.221-1.408.054-1.646-.484-3.568-2.37-4.898-4.807-2.03-3.721-1.936-7.139-.582-7.876.371-.202.843-.221 1.408-.054 1.644.484 3.568 2.371 4.898 4.807 1.33 2.438 1.875 5.076 1.393 6.722-.168.564-.44.952-.811 1.154"/><path d="m231.044 99.326c-.421-.25-1.386-1.389-2.105-3.607-.428-1.312-.564-2.374-.564-3.115 0-.551.078-.882.166-1.051.421.25 1.386 1.391 2.109 3.609.424 1.311.56 2.372.56 3.111 0 .554-.078.884-.166 1.053"/></g><g fill="#1a1918"><path d="m127.141.43s-10.564 1.349-16.635 3.372c-6.068 2.023-11.013 5.394-11.013 5.394s-2.024 4.496-2.024 6.294.451 3.371.451 3.371 6.743-5.844 11.913-9.215c5.169-3.372 17.308-9.216 17.308-9.216"/><path d="m71.169 32.124s.902-2.023 1.125-3.373c.226-1.347 0-3.37 0-3.37s-2.922-2.922-6.069-4.271c-3.146-1.349-7.641-.9-7.641-.9s5.393 3.597 6.967 5.395c1.572 1.799 5.618 6.519 5.618 6.519"/><path d="m73.166 59.21 1.405-1.123c-.486-.607-2.182-2.585-3.625-2.585h-1.123v1.798h1.123c.365.015 1.445.944 2.22 1.91"/><path d="m88.704 57.709c1.181-.58 2.628-1.209 3.482-1.316.295-.036.52-.006.629.088.121.103.156.318.158.385l1.799-.015c0-.109-.02-1.059-.764-1.715-.353-.312-.998-.657-2.047-.527-1.914.239-5.338 2.14-5.72 2.357l-2.993 1.683h5.456s0-.471 0-.94"/><g transform="translate(0 8)"><path d="m55.733 60.386c.529.066 1.541.191 1.541.191s.191-.152.273-.216c.114-.074 2.801-1.683 20.186-2.52 6.477-.313 13.371-.436 20.039-.556 12.941-.233 25.166-.451 34.898-1.927 12.249-1.856 23.388-9.426 27.29-12.323v1.095h6.293l-5.418-4.063-.544.445c-.135.108-13.479 10.885-27.89 13.068-9.613 1.457-21.781 1.677-34.66 1.909-6.682.118-13.59.242-20.096.555-15.213.734-19.582 2.064-20.81 2.667-.405-.05-2.143-.267-2.143-.267l-1.41 2.817 1.609.804s.522-1.045.842-1.679" mask="url(#a)"/><path d="m224.398 130.412c-9.988 10.413-27.104 21.118-35.69 19.829-3.322-.496-5.501-.988-6.919-1.389-.012-.005-.02-.014-.03-.019-.195-.111-.404-.163-.611-.172-.641-.203-1.074-.373-1.359-.506l-.368-6.615c2.969.037 10.17-.695 16.715-7.787 6.822-7.394 10.576-14.317 11.471-21.174.789-6.054-3.055-22.061-4.744-28.661-1.967-7.698-6.672-22.707-10.383-24.42-3.305-1.527-13.816.349-21.295 9.228-2.648 3.146-5.047 6.934-7.367 10.595-3.438 5.424-6.99 11.032-9.182 10.266-.789-.277-1.26-.69-1.435-1.261-.057-.196-.084-.408-.084-.627 0-1.362 1.023-3.063 1.49-3.689.004-.004.016-.02.018-.023l-1.454-1.06c-.004.003-.011.015-.013.02-1.301 1.824-5.342 6.668-8.403 7.157-.697.111-1.283-.017-1.795-.392-.578-.428-.851-.905-.855-1.506-.014-2.263 3.541-5.456 4.912-6.496l.406-.307-.056-.508c0-.017-.2-1.871.195-3.25.324-1.136 1.025-3.03 1.359-3.925 4.077-4.706 12.387-13.741 12.481-13.841.014-.015.019-.03.033-.045.625-.25 1.229-.506 1.795-.772 5.103-2.392 9.978-4.679 11.869-9.436.729.45 1.647 1.02 2.32 1.47.524.351 1.053 1.145 1.414 1.832-2.605 2.018-4.779 3.989-4.943 4.14-.553.501-.592 1.354-.092 1.905s1.356.592 1.905.091c2.005-1.824 7.859-6.787 10.779-7.819 2.791-.984 11.283-3.981 17.107-3.086 5.047.779 16.707 11.948 21.356 18.551 11.687 16.607 14.14 24.636 14.14 28.446 0 8.281-4.558 24.696-14.687 35.256zm-23.742 26.224c1.338 1.169 3.177 4.052 3.771 5.064l.043.072.053.067c.867 1.131 2.195 3.054 2.473 3.847.033.157.048.407.048.744 0 2.415-.787 8.921-2.507 11.043-.202.249-.401.403-.52.403-.096 0-.18-.012-.309-.156-1.025-1.176-.968-5.506-.603-8.206l.045-.335-.119-.32c-.028-.078-.723-1.928-1.453-3.14-.346-.603-1.114-3.97-1.627-6.747l-2.659.468c.004.026.43 2.606.43 4.048 0 1.528.561 5.57.666 6.327-.472 5.387-2.037 14.429-4.277 16.213-.266.209-.408.187-.467.178-.334-.047-.562-.199-.762-.51-1.224-1.879-.332-7.361.522-10.373l.07-.262-.031-.267c-.018-.155-.467-3.873-1.285-7.656-1.321-6.104-2.705-8.596-4.774-8.596-1.31 0-3.051.785-7.164 10.137-2.045 4.654-3.754 9.368-3.771 9.416l-.024.066-.019.074c-1.887 7.836-5.522 16.362-7.721 16.059-.1-.011-.176-.034-.287-.208-2.012-3.266 3.756-20.122 5.65-25.665 2.313-6.763 6.26-14.202 7.682-16.797 1.76.46 3.977.895 6.578 1.287 2.127.318 4.668.019 7.447-.757 1.069.997 3.498 3.255 4.901 4.482zm-114.304-51.721c14.109 4.605 30.133 3.135 41.951.779 3.072-.611 5.996-1.308 8.715-2.031-6.551 3.374-16.902 7.178-29.592 6.555-10.882-.534-17.34-2.989-21.074-5.303zm81.964 62.27c-4.863 6.612-13.07 15.213-14.977 17.189-1.381-.041-4.58-.057-6.213.556l-1.558.678c-2.61 1.188-4.291 1.765-5.037 1.733.422-.981 2.314-3.11 4.345-4.84.311-.27.473-.647.473-1.029 0-.309-.105-.622-.32-.874-.485-.565-1.334-.636-1.903-.151-.697.592-2.296 2.017-3.573 3.573-.738-.22-1.959-.453-3.554-.293-.872.087-2.311.575-4.588 1.358-1.803.625-5.121 1.769-6.994 2.062.343-.301.783-.644 1.291-1.008.306-.087.564-.275.736-.525 1.877-1.295 4.392-2.816 6.732-4.076.453-.243.707-.707.707-1.189 0-.219-.049-.436-.16-.637-.353-.657-1.17-.903-1.826-.551-2.459 1.325-5.178 2.903-7.291 4.432-1.117.175-3.754.653-6.434 1.546l-3.017 1.147c-1.426.568-4.319 1.72-6.002 2.045 3.041-3.027 13.914-10.107 21.082-12.315 8.519-2.617 15.181-3.308 15.251-3.316l.588-.061.355-.472c.031-.047 3.401-4.512 9.33-10.665 5.981-6.197 11.151-11.15 11.203-11.197l.452-.435-.487-7.816c-.045-.735-.062-1.674-.062-2.71 0-4.17.283-9.882.285-9.955l.023-.422-3.597-5.754c-.395-.631-1.227-.824-1.858-.429-.41.256-.635.695-.635 1.145 0 .244.065.49.206.712 0 0 1.312 2.098 2.253 3.606l-.861-.808c-.545-.509-1.396-.482-1.908.062-.51.543-.481 1.397.062 1.907l3.477 3.259c-.07 1.975-.145 4.488-.145 6.65 0 1.096.02 2.1.067 2.897 0 0 .301 4.837.392 6.319-.027.011-.056.017-.084.029-.156.076-15.88 7.462-47.657 5.492-30.002-1.866-46.384-6.457-48.457-7.069-.183-.394-.359-.777-.527-1.142-2.072-4.518-4.188-13.272-4.725-15.573 1.451-2.105 4.354-6.29 5.278-7.523l5.566-2.783c.668-.333.937-1.145.606-1.81-.335-.665-1.145-.936-1.809-.602l-2.258 1.125c.162-.413.274-.72.309-.813.054-.152.078-.305.078-.456 0-.553-.344-1.072-.895-1.269-.701-.251-1.474.115-1.722.815-.41 1.137-1.258 3.195-1.809 3.884-.918 1.147-5.699 8.1-5.902 8.394l-.334.486.129.575c.103.455 2.531 11.215 5.035 16.677 2.453 5.345 6.939 14.546 6.984 14.638l.266.547.586.161c.062.02 6.533 1.821 14.869 5.552 7.816 3.496 17.314 11.575 17.945 13.938-1.088.144-4.088-2.348-5.43-3.467-1.798-1.496-3.351-2.79-4.667-3.119-2.706-.675-5.364-.334-5.862-.259-4.539-4.101-11.887-8.991-15.767-11.484-.627-.401-1.461-.218-1.864.409-.146.224-.214.476-.214.725 0 .444.22.878.619 1.139 9.158 5.878 17.207 12.171 18.33 14.267-.819.213-2.313-.819-4.145-2.183-1.394-1.038-2.84-2.11-4.262-2.585-3.119-1.04-7.052-1.514-7.963-1.615-2.544-4.194-6.062-8.5-7.619-10.341-.48-.571-1.33-.64-1.9-.16-.314.268-.478.648-.478 1.032 0 .307.105.615.318.869.031.036 3.097 3.674 5.814 7.648 3.647 5.328 4.118 7.492 4.118 8.248 0 .256-.053.352-.059.356 0 0-.018.018-.08.041-.682.248-1.256-.42-2.86-2.825-1.283-1.923-2.882-4.313-5.46-6.583-4.987-4.389-13.104-9.875-15.17-11.254-.309-1.873-1.309-8.426-1.682-16.792-.123-2.812-.178-5.161-.178-7.136 0-5.711.438-8.282.813-9.786.58-2.317 5.047-10.368 8.101-14.595 2.815-3.898 7.879-8.759 7.93-8.809.279-.266.418-.618.418-.974 0-.337-.125-.671-.373-.934-.516-.537-1.369-.554-1.908-.041-.125.12-1.877 1.801-3.907 3.993.37-1.592.827-3.213 1.325-4.212 1.279-2.556 4.56-6.944 4.593-6.989.446-.595.327-1.44-.269-1.888-.195-.147-.416-.224-.643-.252.123 0 .252-.006.395-.024 1.59-.198 3.242-2.594 4.232-4.302.063.036.127.072.196.106.211.112.417.214.629.322.091 2.759.962 9.743 7.224 13.157.336.185.68.359 1.02.535 1.232 2.098 7.154 9.851 27.882 10.867 23.188 1.137 38.503-11.464 39.144-12.001.039-.033.072-.071.107-.106 5.389-1.809 8.725-3.263 8.787-3.29.68-.3.991-1.095.692-1.776-.299-.683-1.096-.991-1.777-.694-.448.195-44.308 19.118-73.099 4.857-.102-.067-.209-.124-.324-.163-.383-.194-.764-.39-1.143-.595-4.111-2.248-5.33-6.638-5.684-9.377 22.067 10.573 38.868 8.001 53.756 3.533 7.053-2.116 13.798-10.429 17.974-15.683-.16.755-.211 1.54-.211 2.175 0 .313.01.575.025.792-1.335 1.073-5.233 4.48-5.233 7.611v.024c.006 1.164.556 2.183 1.585 2.941.906.667 1.965.91 3.147.719 2.185-.349 4.494-2.203 6.298-4.027.014.334.043.671.143.997.238.786.877 1.846 2.562 2.434 3.538 1.24 6.959-4.162 11.291-10.999 2.29-3.612 4.657-7.346 7.225-10.399 6.934-8.233 16.701-9.892 19.166-8.753 2.123.98 6.426 11.62 9.397 23.234 1.298 5.07 5.468 22.075 4.699 27.982-.844 6.472-4.444 13.076-11.008 20.188-6.113 6.624-12.949 7.225-15.492 7.192l-.033-.581c-.024-.479-.036-1.02-.036-1.603 0-4.653.676-12.031.704-12.341.076-.561 1.076-8.13 1.076-13.752 0-1.279-.053-2.459-.18-3.431-.734-5.639-4.594-8.834-4.758-8.965-.578-.467-1.422-.38-1.892.195-.207.248-.303.551-.303.851 0 .391.168.779.49 1.045.033.026 3.197 2.684 3.787 7.222.115.858.16 1.911.16 3.073 0 5.502-1.043 13.336-1.056 13.432l-.006.055c-.033.353-.719 7.761-.719 12.61 0 .632.014 1.219.037 1.745 0 0 .324 5.793.52 9.28-.084.277-.069.57.043.841.054.936.09 1.586.095 1.717-.617 1.484-4 9.352-8.935 16.065zm-136.216-5.337c-6.723 3.585-15.977 9.669-16.068 9.731l-.051.033-.045.037c-5.623 4.457-11.654 8.08-13.209 7.965-.033-.071-.07-.142-.07-.252 0-1.71 3.949-7.542 7.793-10.798 1.25-1.054 8.992-5.339 17.742-10.033.336-.046.627-.209.834-.446 5.453-2.919 11.226-5.963 16.018-8.459.462-.242.726-.711.726-1.199 0-.21-.049-.423-.152-.622-.344-.659-1.158-.917-1.819-.574-1.558.812-8.877 4.633-16.453 8.69l-6.746.871-.234.135c-3.731 2.168-7.711 3.933-9.182 4.115.311-.766 1.699-2.413 5.996-5.954 2.629-2.161 16.711-6.132 25.535-8.271.617-.148 1.033-.699 1.033-1.31 0-.104-.013-.211-.038-.318-.176-.725-.905-1.169-1.629-.993-1.762.428-14.043 3.442-21.514 6.291.121-.174.246-.35.389-.521.63-.704 5.388-2.598 11.464-4.284 3.127-.868 11.389-2.179 14.659-2.681.011.327.027.655.041.994.164 3.707.453 7.07.752 9.851-2.321 1.137-10.114 4.985-15.772 8.002zm33.426-69.608c-.4.006-.793.188-1.053.532-.019.025-.1.134-.222.3.162-.357.312-.707.459-1.044.216.112.488.188.816.212zm-8.278 17.105c-.015.092-.017.185-.013.277-.305.388-.596.773-.871 1.152-2.662 3.688-7.467 11.94-8.451 15.237-.424.037-.909-.03-1.225-.411-.311-.369-.889-.949-1.691-1.75-2.237-2.238-6.401-6.4-9.725-11.223-4.338-6.286-8.869-17.54-8.869-19.587 0-.054.004-.102.012-.144.365-1.447 3.408-5.248 7.402-9.243 2.328-2.328 7.17-7.169 9.432-7.621 1.289-.259 5.923 1.305 11.816 3.983 1.824.83 4.633 3.014 5.787 3.94-1.17 2.639-4.252 9.939-4.252 13.56 0 .538.07.992.221 1.338.265.613.705.87 1.027.976.756.252 1.51.018 2.242-.526-.168.301-.33.593-.468.868-1.426 2.857-2.336 8.916-2.374 9.174zm-35.656 10.303c-9.355-10.291-11.291-32.057-11.291-38.939 0-1 .041-1.679.106-1.969.609-1.536 6.203-8.714 12.506-15.242 7.507-7.773 12.101-10.693 13.754-10.831 1.312-.11 6.185 2.444 10.218 5.007-.137.668-.277 1.389-.42 2.174-.097.542-.142 1.216-.142 1.961 0 3.012.693 7.162 1.117 8.223.508 1.268 1.605 1.693 2.574 2.068.447.175.91.355 1.381.625 1.307.745 3.397 1.314 4.463 1.572.996 1.915 4.574 7.828 12.91 12.743-1.017 1.732-2.254 3.323-2.879 3.402-.24.028-.33 0-.353-.008-.022-.042-.035-.122-.035-.219 0-.081.009-.172.025-.244l-1.715-.529c-1.91 5.051-4.439 8.807-5.338 8.69-.082-.131-.125-.34-.125-.638 0-2.04 1.848-7.739 4.424-13.431l.285-.624-.527-.438c-.168-.141-4.168-3.463-6.723-4.624-4.664-2.12-10.689-4.553-12.912-4.109-2.326.465-5.685 3.451-10.35 8.113-1.675 1.675-7.197 7.357-7.879 10.084-.585 2.345 4.872 15.016 9.124 21.183 3.418 4.957 7.658 9.197 9.935 11.474.74.738 1.324 1.323 1.578 1.63.619.741 1.43 1.024 2.209 1.064-.252 1.431-.467 3.413-.543 6.407-3.982-.98-16.392-4.691-25.377-14.575zm29.989-67.965c.554-.463 2.834-1.574 5.181-2.637-.15.379-.287.764-.394 1.13l-.323.952c-.49 1.346-1.164 3.19.389 4.482 1.254 1.045 4.693.947 14.459.518l7.502-.31c14.736-.535 34.492-1.756 44.932-4.525 6.24-1.656 13.509-6.104 19.921-10.028 4.769-2.917 9.271-5.673 11.712-6.142 4.53-.872 12.899 2.362 15.768 3.554 1.549 2.061 2.576 4.427 2.494 6.754-.189 5.493-3.539 7.626-11.137 11.189-6.941 3.255-19.976 5.488-20.111 5.511-.732.125-1.226.821-1.101 1.556.125.733.82 1.227 1.554 1.104.395-.068 7.205-1.234 13.703-3.151-3.332 3.656-8.293 9.135-10.468 11.746l-1.7 2.112c-3.682 4.642-10.538 13.288-16.983 15.218-16.949 5.087-32.586 6.31-53.293-4.1-.221-.379-.619-.645-1.088-.673-.07-.004-.137.002-.205.009-.199-.104-.395-.2-.594-.306-10.367-5.484-13.746-12.982-13.779-13.058l-.275-.631-.676-.15c-.821-.175-3.197-.773-4.336-1.424-.647-.371-1.256-.607-1.746-.796-.658-.257-.977-.397-1.043-.557-.285-.717-.93-4.587-.93-7.199 0-.577.031-1.095.108-1.501 1.359-7.482 2.349-8.549 2.459-8.647zm8.627-4.148 3.89-3.404.098-.146c.051-.074 5.154-7.586 10.379-12.594 2.256-2.159 4.422-4.187 6.377-5.978-.127.328-.235.651-.311.961-2.918 11.442-2.951 25.706-2.951 25.847h1.797c0-.139.037-14.184 2.894-25.403.43-1.684 1.873-3.841 3.057-5.407 2.1-1.813 3.582-2.978 4.103-3.188 1.407-.393 5.487-.393 7.03-.393.963 0 2.416.068 3.521.128-.453.6-.965 1.213-1.373 1.662-.5.552-.461 1.404.092 1.905s1.404.46 1.906-.091c.405-.449 2.463-2.761 2.977-4.302.568-1.702 5.912-16.538 18.596-13.062 5.945 1.631 9.826 4.504 11.523 8.537 3.031 7.199-1.732 15.944-1.783 16.032-.358.651-.125 1.472.527 1.833.651.362 1.471.129 1.832-.523.119-.212 1.635-2.985 2.518-6.797 1.857.771 7.456 3.109 9.639 4.202 1.373.687 3.295 2.099 4.766 3.247-2.705.766-4.443 1.701-4.59 1.781-.648.358-.89 1.175-.531 1.828.355.655 1.176.894 1.826.538.043-.023 2.631-1.405 6.393-2.086.107-.006.215-.024.316-.055 2.197-.368 4.764-.488 7.449.033 1.723.334 3.77 1.432 5.631 2.982-3.947-1.401-9.525-2.97-13.183-2.266-2.766.531-7.186 3.239-12.317 6.375-6.306 3.861-13.456 8.236-19.44 9.823-10.28 2.726-29.893 3.935-44.535 4.466l-7.516.31c-6.66.294-12.41.549-13.23-.102-.522-.435-.346-1.123.15-2.482l.363-1.076c.264-.915.781-2.021 1.133-2.719.27-.115.529-.228.777-.332zm3.447-21.411c4.566-5.347 11.857-3.154 14.707-2.003-2.037 1.88-4.033 3.77-5.655 5.323-4.16 3.988-8.121 9.32-9.847 11.743-1.035-1.108-2.524-3.119-2.815-5.789-.324-2.97.891-6.091 3.61-9.274zm163.493 39.033c-4.361-6.2-16.773-18.682-23.15-19.663-6.493-.999-15.465 2.168-18.413 3.207-1.293.458-2.929 1.456-4.564 2.604-.473-.824-1.188-1.84-2.107-2.454-.963-.644-2.352-1.495-3.11-1.954.059-.441.1-.897.113-1.372.26-7.468-7.722-14.461-13.228-15.532-2.883-.561-5.617-.482-7.982-.128-1.278-1.055-4.665-3.778-6.957-4.925-2.616-1.307-9.609-4.198-10.371-4.512.327-2.793.168-5.891-1.074-8.851-2.037-4.845-6.512-8.247-13.301-10.109-11.716-3.211-18.867 6.796-21.531 13.869-.926-.056-3.408-.205-4.902-.205-2.983 0-6.242.06-7.789.502-1.178.337-4.584 3.194-8.242 6.497-4.278-2.114-13.405-4.235-18.936 2.241-3.232 3.784-4.658 7.605-4.236 11.358.4 3.551 2.367 6.118 3.689 7.478-.908.795-2.119 1.855-2.301 2.013-1.615.687-7.535 3.25-8.904 4.391-.617.514-1.398 1.627-2.33 5.275-3.049-1.896-8.629-5.112-11.082-4.909-3.996.334-11.406 7.44-15.469 11.647-5.908 6.12-12.275 13.992-13.103 16.198-.948 2.524.425 31.205 11.728 43.641 10.088 11.094 23.815 14.746 27.344 15.531.002 1.004.018 2.097.049 3.291-3.067.469-11.875 1.848-15.291 2.796-2.602.722-11.205 3.23-12.815 5.158-1.291 1.55-1.812 3.341-1.834 3.415-.037.129-.047.258-.045.385-.64.336-1.164.66-1.539.967-4.431 3.653-6.869 6.026-7.05 8.125-.061.713.142 1.364.589 1.885.377.442 1.334 1.532 6.01-.357-3.191 1.802-5.564 3.219-6.305 3.847-.121.099-11.548 10.631-8.041 14.922 1.422 1.737 4.432.921 10.067-2.732 3.408-2.208 6.502-4.638 6.826-4.893.508-.334 9.355-6.134 15.807-9.577 5.058-2.695 11.842-6.066 14.834-7.541.394 3.11.728 4.985.736 5.024l.103.566.483.316c.098.065 9.877 6.523 15.361 11.351 2.313 2.037 3.803 4.267 4.998 6.058 1.668 2.5 3.244 4.854 6.01 3.867.916-.326 1.555-1.019 1.803-1.942.357-1.326-.194-3.24-1.211-5.356 1.553.238 3.709.64 5.498 1.237 1.015.339 2.281 1.28 3.504 2.191 2.49 1.849 5.59 4.155 7.99 1.755.447-.448.65-1.055.58-1.707-.072-.694-.584-1.564-1.4-2.535.806.011 1.75.091 2.687.328.721.177 2.317 1.507 3.602 2.576 3.029 2.521 6.467 5.388 8.998 3.486.588-.44.914-1.11.914-1.867 0-.098-.008-.197-.02-.301-.484-4.322-12.373-13.101-19.584-16.327-7.187-3.217-12.875-4.993-14.66-5.519-.711-1.457-2.771-5.707-4.654-9.685 5.758 1.499 21.258 4.957 46.777 6.543 22.188 1.375 36.572-1.645 43.7-3.811-1.875 1.866-4.169 4.174-6.599 6.697-5.024 5.21-8.178 9.148-9.192 10.452-1.82.222-7.745 1.068-15.184 3.357-7.477 2.304-22.631 11.559-23.658 15.1-.051.185-.08.375-.08.558 0 .416.14.807.408 1.122 1.535 1.791 4.816.655 10.041-1.429l2.873-1.093c.699-.234 1.4-.435 2.072-.607-.074.165-.127.328-.148.484-.09.598.099 1.179.519 1.596 1.526 1.528 5.108.439 10.823-1.535 1.658-.573 3.373-1.165 3.976-1.224.691-.069 1.274-.036 1.736.03-.142.348-.236.682-.261.996-.061.804.244 1.342.511 1.657 1.735 2.02 5.447.327 8.433-1.033l1.385-.607c1.115-.419 4.121-.444 5.752-.364l.605.033.426-.439c.408-.414 10.021-10.269 15.633-17.899.388-.533.767-1.068 1.137-1.604-.042.123-.088.245-.129.366-4.846 14.172-7.618 24.345-5.391 27.954.512.831 1.279 1.341 2.215 1.468 5.676.772 9.597-13.498 10.689-18.024 2.783-7.684 6.688-16.289 8.356-17.591 1.08 1.168 2.592 7.197 3.367 13.504-.285 1.06-1.137 4.478-1.137 7.676 0 1.767.262 3.461 1.028 4.636.621.957 1.535 1.549 2.638 1.707.885.125 1.76-.131 2.528-.74 2.4-1.911 3.793-7.624 4.546-12.229.204 1.418.6 2.731 1.342 3.582.621.709 1.428 1.084 2.34 1.084.736 0 1.824-.289 2.815-1.663 2.011-2.796 2.878-9.266 2.878-12.439 0-.757-.046-1.326-.142-1.613-.483-1.445-2.385-3.982-2.858-4.6-.259-.437-2.416-4.023-4.277-5.654-.996-.869-2.564-2.314-3.75-3.412 9.195-3.422 20.188-11.122 27.662-18.915 10.647-11.099 15.436-28.391 15.436-37.123 0-6.108-4.922-16.202-14.633-29.999z" mask="url(#a)"/></g><path d="m105.422 30.946.133-.05.522-.408c8.599-6.822 13.144-8.255 15.445-8.255 5.186 0 10.199 4.617 10.74 5.784-.99 1.664-11.816 10.765-16.472 10.183-4.26-.532-7.616-2.662-9.227-3.688l-.822-.496-.778-.315c-1.052-.385-1.425-.613-1.425-1.127 0-.698 1.296-1.412 1.884-1.628zm-1.078 4.442.59.238.666.405c1.588 1.009 5.307 3.371 9.967 3.953 4.328.541 11.736-4.833 15.43-8.093 3.113-2.75 3.113-3.467 3.113-3.813 0-1.968-6.399-7.643-12.588-7.643-3.76 0-9.334 2.909-16.564 8.643 0 0-.194.152-.297.235-.621.248-2.92 1.294-2.92 3.261 0 1.86 1.631 2.459 2.603 2.814z"/><path d="m31.805 68.114c3.239-2.18 5.555-2.479 5.938-2.232.002.013.005.026.005.042 0 .537-1.185 2.51-4.312 4.614-3.238 2.179-5.557 2.478-5.937 2.229-.004-.013-.008-.024-.008-.04 0-.537 1.187-2.51 4.314-4.613zm-4.515 6.463c1.582.31 4.388-.689 7.148-2.547 2.762-1.859 4.746-4.08 5.057-5.662.138-.718-.061-1.21-.252-1.496-1.252-1.858-5.252-.396-8.442 1.75-2.761 1.856-4.746 4.079-5.054 5.661-.032.169-.047.323-.047.466 0 .471.152.811.301 1.031.191.286.572.656 1.289.797z"/><path d="m23.432 79.341c-.092.551-.684 1.468-1.799 2.271-1.115.802-2.172 1.068-2.722.98-.143-.024-.217-.066-.241-.096-.021-.03-.037-.117-.013-.258.09-.551.679-1.467 1.797-2.27 1.556-1.119 2.81-1.095 2.963-.883.013.018.027.062.027.131 0 .034-.004.075-.012.125zm1.444-1.307c-.934-1.299-3.288-1.098-5.473.474-1.391 1-2.332 2.285-2.522 3.44-.097.605.016 1.16.33 1.596.315.438.801.723 1.409.821 1.154.189 2.673-.294 4.064-1.294s2.334-2.285 2.522-3.439c.099-.607-.012-1.16-.33-1.598z"/><path d="m163.882 80.317c-1.451 1.854-3.316 3.164-4.756 3.34-.472.057-.845-.018-1.109-.224-.262-.206-.424-.548-.48-1.023-.178-1.438.646-3.565 2.095-5.418 2.143-2.736 4.866-3.902 5.866-3.117.334.26.503.755.503 1.402 0 1.302-.689 3.211-2.119 5.04zm2.725-7.858c-1.986-1.555-5.67-.05-8.391 3.424-1.754 2.244-2.699 4.829-2.466 6.745.115.95.517 1.719 1.16 2.221.644.503 1.484.708 2.435.592 1.914-.232 4.199-1.772 5.953-4.016 2.719-3.474 3.293-7.414 1.309-8.966z"/><path d="m169.273 71.232c-.5.183-1.326-.349-1.713-1.408-.127-.342-.182-.671-.182-.967 0-.618.241-1.088.579-1.213.5-.183 1.324.35 1.714 1.406.387 1.058.098 2-.398 2.182zm-1.936-5.276c-1.537.564-2.181 2.535-1.466 4.487.718 1.953 2.482 3.042 4.021 2.478 1.537-.564 2.182-2.536 1.467-4.489-.719-1.954-2.483-3.04-4.022-2.476z"/><path d="m226.244 103.348c-.168.056-.369-.012-.506-.079-.604-.297-1.207-1.111-1.537-2.075-.532-1.557-.178-2.788.3-2.951.166-.059.366.012.504.078.604.297 1.207 1.111 1.536 2.075.185.54.259 1.045.259 1.481 0 .803-.256 1.368-.556 1.471zm-.444-6.64c-.638-.313-1.287-.371-1.883-.167-1.607.551-2.232 2.849-1.419 5.232.492 1.435 1.404 2.598 2.447 3.11.635.311 1.285.368 1.879.165 1.609-.549 2.234-2.848 1.418-5.233-.489-1.435-1.399-2.595-2.442-3.107z"/><path d="m231.23 99.086c-.42-.249-1.383-1.389-2.107-3.608-.424-1.313-.561-2.373-.561-3.113 0-.551.078-.883.166-1.05.422.249 1.387 1.389 2.105 3.608.428 1.312.565 2.372.565 3.112 0 .553-.08.882-.168 1.051zm1.314-4.857c-.916-2.819-2.632-5.405-4.406-4.831-1.771.577-1.642 3.679-.724 6.499.589 1.813 1.701 3.997 3.06 4.688.576.293 1.047.241 1.348.143.297-.095.711-.332 1.004-.909.691-1.356.308-3.777-.282-5.59z"/><path d="m222.298 84.407c-.371.201-.843.221-1.412.054-1.642-.484-3.566-2.371-4.892-4.807-2.034-3.724-1.94-7.139-.586-7.877.371-.201.843-.22 1.41-.054 1.644.484 3.568 2.371 4.896 4.808 1.328 2.438 1.875 5.075 1.391 6.721-.164.564-.438.953-.807 1.155zm2.534-.646c.621-2.113.033-5.213-1.538-8.091-1.57-2.877-3.857-5.051-5.97-5.672-1.024-.3-1.985-.232-2.776.201-2.49 1.358-2.548 5.89-.136 10.314 1.572 2.879 3.859 5.051 5.97 5.673 1.024.302 1.985.232 2.776-.2.795-.433 1.373-1.202 1.674-2.225z"/><path d="m123.559 21.899c-1.642-.212-3.658-.297-5.56.11-2.231.479-4.633 1.805-6.393 2.943-.27.768-.424 1.59-.424 2.452 0 4.097 3.318 7.417 7.418 7.417 4.096 0 7.418-3.32 7.418-7.417 0-2.187-.953-4.146-2.459-5.505"/></g></g></svg>